<svg data-name="condor logo" xmlns="http://www.w3.org/2000/svg" viewBox="0 0 120.876 25.336"><g fill="#f8ac00"><path d="M44.23 23.457c-6.331 0-9.1-4.722-9.03-10.71.07-6.019 3.604-10.759 9.714-10.759a12.062 12.062 0 0 1 5.037 1.033l-.764 2.694a10.271 10.271 0 0 0-3.736-.808c-2.668 0-5.765 1.563-5.802 7.672-.033 5.571 2.156 7.958 5.479 7.958a8.73 8.73 0 0 0 3.727-.898l.855 2.47a11.694 11.694 0 0 1-5.48 1.348"/><path d="M56.782 9.576c-2.11 0-3.098 1.707-3.098 5.75 0 4.045.943 5.702 3.053 5.704 2.114 0 3.055-1.663 3.055-5.704s-.898-5.75-3.01-5.75zm-.044 13.836c-3.996 0-7.052-2.247-7.052-8.086s3.056-8.083 7.052-8.084 7.05 2.246 7.051 8.084c0 5.839-3.054 8.083-7.05 8.086M69.375 7.503l.252 1.743a4.854 4.854 0 0 1 4.338-2.06c3.878 0 4.545 2.988 4.545 5.212v10.807h-3.749v-9.534c0-1.4.159-3.943-2.225-3.943-2.735 0-2.99 3.72-2.99 5.054v8.423h-3.75V7.503h3.58M87.305 20.968c2.86 0 2.86-4.766 2.86-5.69 0-1.906-.222-5.562-2.764-5.562-2.8 0-2.83 4.61-2.83 5.562 0 2.386.35 5.69 2.733 5.69zM93.916 2.23v20.963h-3.337l-.127-2.7c-.762 1.333-2.004 3.02-4.451 3.02-3.655 0-5.404-3.783-5.404-8.172 0-5.72 2.892-8.17 5.626-8.17a4.187 4.187 0 0 1 3.942 2.672V2.23h3.751M103.002 9.583c-2.11 0-3.099 1.71-3.099 5.749 0 4.043.989 5.704 3.099 5.704s3.055-1.661 3.055-5.703c0-4.04-.942-5.748-3.055-5.75zm0 13.835c-3.997 0-7.052-2.247-7.052-8.085.002-5.84 3.055-8.083 7.052-8.083s7.008 2.243 7.008 8.083c0 5.838-3.011 8.085-7.008 8.085M115.344 7.497l.093 3.91c1.24-3.847 3.213-4.165 3.945-4.165a5.323 5.323 0 0 1 1.494.255l-.67 3.273a5.377 5.377 0 0 0-1.205-.19 2.743 2.743 0 0 0-2.194 1.145c-.765 1.05-1.083 2.225-1.083 5.85V23.2h-3.75V7.497h3.37M12.268 0A12.351 12.351 0 0 0 0 12.69a12.274 12.274 0 1 0 24.536 0A12.352 12.352 0 0 0 12.268 0zm0 24.216A11.184 11.184 0 0 1 1.142 12.715 11.228 11.228 0 0 1 12.268 1.164a11.226 11.226 0 0 1 11.126 11.55 11.183 11.183 0 0 1-11.126 11.502z"/><path d="M11.55 10.536h6.181l-3.114 2.51 1.146 1.103L22.26 9.1h-9.6a8.608 8.608 0 0 0-2.066.117 1.334 1.334 0 0 0-.876.72 1.592 1.592 0 0 0 .056 1.283 16.966 16.966 0 0 0 2.07 2.302c-1.264-.777-4.637-2.984-4.637-2.984l.937.001v-1.44H2.19l17.522 11.396V18.49L11.458 11c-.325-.3-.218-.463.092-.463z"/></g></svg>