<svg id="Barbados" data-name="Barbados" xmlns="http://www.w3.org/2000/svg" viewBox="0 0 369.5082 53"><path d="M346.9178,22.4906c-8-2.2-10-3.4-10-6,0-2.9,2.7-4.5,7.7-4.5a24,24,0,0,1,13.2,4l.4.3,5.9-9-.3-.3c-.2-.2-5.8-5.3-19.2-5.3-11.2,0-18.3,4.6-19.6,12.4a26.4,26.4,0,0,0-23.4-12.3c-12.1,0-21.4,6.4-25.1,16.4-3.8-10.1-13.4-16.3-26.3-16.3h-20.9v41.5l-21.3-41.5h-2.4l-18.8,36.7a11.8,11.8,0,0,0-8.1-11v-.5a11.3,11.3,0,0,0,6.6-10.7c0-9.3-7-14.6-19.3-14.6h-25.4v51.1l-12.4-16.4v-.3a17,17,0,0,0,9.8-16.1c0-11.5-8.1-18.3-21.7-18.3h-24v41.6l-21.4-41.5h-2.4l-18.9,36.7a11.8,11.8,0,0,0-8.1-11v-.5a11.3,11.3,0,0,0,6.6-10.7c0-9.3-7-14.6-19.3-14.6h-25.4v52.8h26.1c5.6,0,10.2-1.1,13.6-3.3l-1.7,3.3h13l3.3-7.1h24.2l3.4,7.1h18.6v-15.7h12.5l11.5,15.8h38.7c5.6,0,10.2-1.1,13.6-3.3l-1.7,3.3h13l3.3-7.1h24.2l3.4,7.1h28c12.9,0,22.5-6.3,26.3-16.4,3.7,10,13,16.4,25.1,16.4,15.8,0,26.9-10.9,26.9-26.5a16.2006,16.2006,0,0,0-.1-2.2c2.8,2.7,7.3,4.7,13.7,6.5,8.9,2.5,10.5,4.1,10.5,6.9,0,3.3-2.8,5.1-8,5.1a26.0009,26.0009,0,0,1-12.9-3.8,29.4008,29.4008,0,0,1-5.5,9c3,1.9,9.1,4.9,18.6,4.9,12.6,0,20.1-6,20.1-16.2C365.0178,30.5906,359.7178,25.8906,346.9178,22.4906Zm-332.1-10.5h13.8c4.8,0,7.5,2.1,7.5,5.8s-2.9,5.8-7.5,5.8h-13.8Zm15,32.6h-15v-12.3h14.8c4.6,0,7.9,2.5,7.9,6.1S34.4178,44.5906,29.8178,44.5906Zm31.8-5.8,8-17.1h.1l7.7,16.8.2.4h-16Zm54.5-9.7h-12.4v-17.1h12.1c6.7,0,10.3,3,10.3,8.6C126.1178,27.5906,120.7178,29.0906,116.1178,29.0906Zm35.8-17.1h13.8c4.8,0,7.5,2.1,7.5,5.8s-2.9,5.8-7.5,5.8h-13.7v-11.6Zm15,32.6h-15v-12.3h14.8c4.6,0,7.9,2.5,7.9,6.1S171.5178,44.5906,166.9178,44.5906Zm31.8-5.8,8-17.1h.1l7.7,16.7.2.4Zm50.8,5.8h-8.8v-32.6h8.8c10.5,0,17,6.2,17,16.3S260.0178,44.5906,249.5178,44.5906Zm60.5-5.7a33.3978,33.3978,0,0,0-6.2-.6h-.8a74.4883,74.4883,0,0,1-1.2,9.9l-.3,1.3-.3-1.3c0-.1-.6-3.2-1.1-9.6a18.7971,18.7971,0,0,0-6.5,1.8l-.4.2v-.4c-.7-11.7-11.3-25.3-11.4-25.5l-.5-.6.7.2c6.9,1.7,9.4,4.7,9.5,4.8l.7.8-1-.4a4.5992,4.5992,0,0,0-1.9-.4h-.5c6.2,8.4,7,15.4,7.1,16.9a24.287,24.287,0,0,1,3.8-.3h.1q-.3285-6.6449-.3-13.3v-.3l.3.1a6.5,6.5,0,0,0,1.6.2,3.6007,3.6007,0,0,0,2.4-.7,32.2915,32.2915,0,0,1-2.4-4.5,12.6015,12.6015,0,0,1-3.8,4.2l-1.1.7.8-1.1a28.7,28.7,0,0,0,3.9-11.8l.1-1.3.4,1.2a40.8,40.8,0,0,0,6.7,12.4l.1.1-.1.2c-.1.1-1.8,3.5-5,4,0,1,0,5.2-.3,10.1a17.2,17.2,0,0,1,7,2.4l1,.7Zm11.5-24.2a115.6984,115.6984,0,0,0-11.4,19.3l-.5,1v-1.1a29,29,0,0,1,4.7-14.8h-.4a6.7969,6.7969,0,0,0-2,.4l-1,.4.7-.8c.1-.1,2.9-3.2,9.5-4.8l.7-.2Zm45.4-6.8a3.5,3.5,0,0,1,1.7-1.7,2.4991,2.4991,0,0,1,1.2-.2,4.9934,4.9934,0,0,1,1.2.2,3.4988,3.4988,0,0,1,1.7,1.7,2.5,2.5,0,0,1,.2,1.2,4.3019,4.3019,0,0,1-.2,1.2,3.5,3.5,0,0,1-1.7,1.7,2.5013,2.5013,0,0,1-1.2.2,5.005,5.005,0,0,1-1.2-.2,3.5,3.5,0,0,1-1.7-1.7,2.4993,2.4993,0,0,1-.2-1.2A4.9984,4.9984,0,0,1,366.9178,7.8906Zm.5,2.3a2.2009,2.2009,0,0,0,.5.8,5.5083,5.5083,0,0,0,.8.6,3.5017,3.5017,0,0,0,1,.2,3.0012,3.0012,0,0,0,1-.2,1.6,1.6,0,0,0,.8-.6,2.2022,2.2022,0,0,0,.5-.8,3.6022,3.6022,0,0,0,.2-1.1,3.0007,3.0007,0,0,0-.2-1,2.2005,2.2005,0,0,0-.5-.8,5.5011,5.5011,0,0,0-.8-.6,2.6,2.6,0,0,0-2,0,1.6,1.6,0,0,0-.8.6,2.1992,2.1992,0,0,0-.5.8,3.5011,3.5011,0,0,0-.2,1A4.2976,4.2976,0,0,0,367.4178,10.1906Zm2.6-2.9a1.6992,1.6992,0,0,1,1,.3,1,1,0,0,1,.3.8.8.8,0,0,1-.3.7c-.2.2-.4.2-.7.3l1,1.6h-.6l-1-1.6h-.6v1.6h-.6v-3.7Zm-.3,1.6h.4a.4.4,0,0,0,.3-.1.2.2,0,0,0,.2-.2h0a.5.5,0,0,0,0-.6l-.2-.2h-1.2v1.2l.5-.1Z" transform="translate(-3.4178 -1.6906)" fill="#fff"/></svg>
